<?xml version="1.0" encoding="UTF-8" standalone="no"?>
<!-- Created with Inkscape (http://www.inkscape.org/) -->

<svg
   xmlns:dc="http://purl.org/dc/elements/1.1/"
   xmlns:cc="http://creativecommons.org/ns#"
   xmlns:rdf="http://www.w3.org/1999/02/22-rdf-syntax-ns#"
   xmlns:svg="http://www.w3.org/2000/svg"
   xmlns="http://www.w3.org/2000/svg"
   version="1.1"
   width="300.00055"
   height="69.828003"
   id="svg3161">
  <defs
     id="defs3163" />
  <metadata
     id="metadata3166">
    <rdf:RDF>
      <cc:Work
         rdf:about="">
        <dc:format>image/svg+xml</dc:format>
        <dc:type
           rdf:resource="http://purl.org/dc/dcmitype/StillImage" />
        <dc:title></dc:title>
      </cc:Work>
    </rdf:RDF>
  </metadata>
  <g
     transform="translate(-261.42829,-157.44818)"
     id="layer1">
    <g
       transform="matrix(0.83017486,0,0,0.83017486,69.870914,32.667934)"
       id="g2994">
      <path
         d="m 295.03691,205.99302 -32.14312,-18.56618 32.14312,-18.56186 0,37.12804"
         id="path18"
         style="fill:#78143e;fill-opacity:1;fill-rule:evenodd;stroke:none" />
      <path
         d="m 295.03691,168.86498 32.15613,18.56617 -32.15613,18.56187 0,-37.12804"
         id="path20"
         style="fill:#eb1547;fill-opacity:1;fill-rule:nonzero;stroke:none" />
      <path
         d="m 262.89379,187.42684 -32.15038,-18.56186 32.15038,-18.559 0,37.12086"
         id="path22"
         style="fill:#f7c41a;fill-opacity:1;fill-rule:evenodd;stroke:none" />
      <path
         d="m 262.89379,224.54627 -32.15038,-18.55325 32.15038,-18.56617 0,37.11942"
         id="path24"
         style="fill:#24527f;fill-opacity:1;fill-rule:evenodd;stroke:none" />
      <path
         d="m 262.89379,150.30598 32.14312,18.559 -32.14312,18.56186 0,-37.12086"
         id="path26"
         style="fill:#ef3a20;fill-opacity:1;fill-rule:evenodd;stroke:none" />
      <path
         d="m 262.89379,187.42684 32.14312,18.56618 -32.14312,18.55325 0,-37.11943"
         id="path28"
         style="fill:#73cfc6;fill-opacity:1;fill-rule:evenodd;stroke:none" />
      <path
         d="m 386.22491,194.99165 11.98138,3.80678 c -1.83675,6.6895 -4.893,11.65713 -9.169,14.9043 -4.27601,3.24862 -9.7,4.87149 -16.28613,4.87149 -8.13588,0 -14.8225,-2.78084 -20.07425,-8.34251 -5.23738,-5.56024 -7.86325,-13.15946 -7.86325,-22.80486 0,-10.19927 2.64025,-18.12279 7.92062,-23.76769 5.26613,-5.64346 12.18225,-8.4659 20.77738,-8.4659 7.49012,0 13.5885,2.21405 18.25187,6.64789 2.79813,2.62012 4.893,6.38243 6.28488,11.28548 l -12.254,2.92863 c -0.73188,-3.17686 -2.2385,-5.6865 -4.53425,-7.52748 -2.31025,-1.83811 -5.094,-2.75788 -8.37988,-2.75788 -4.54862,0 -8.23637,1.63005 -11.06312,4.89157 -2.82675,3.26154 -4.23288,8.5434 -4.23288,15.84848 0,7.74558 1.3775,13.26421 4.1755,16.55301 2.78375,3.28879 6.414,4.93461 10.87663,4.93461 3.28587,0 6.11262,-1.04604 8.48025,-3.13669 2.3675,-2.09065 4.06075,-5.37801 5.10825,-9.86923"
         id="path30"
         style="fill:#100f0d;fill-opacity:1;fill-rule:nonzero;stroke:none" />
      <path
         d="m 405.32341,217.52818 0,-44.40155 11.75175,0 0,44.40155 -11.75175,0 z m 0,-50.42095 0,-10.87081 11.75175,0 0,10.87081 -11.75175,0"
         id="path32"
         style="fill:#100f0d;fill-opacity:1;fill-rule:nonzero;stroke:none" />
      <path
         d="m 436.93416,217.52818 -11.75175,0 0,-44.40155 10.90525,0 0,6.31357 c 1.87975,-2.98173 3.5585,-4.94611 5.0365,-5.89602 1.50663,-0.94272 3.19975,-1.41911 5.09388,-1.41911 2.66887,0 5.25174,0.73754 7.71975,2.21549 l -3.616,10.24375 c -1.99451,-1.2828 -3.83113,-1.9242 -5.52438,-1.9242 -1.63575,0 -3.04188,0.45342 -4.1755,1.35885 -1.14788,0.90542 -2.05188,2.54265 -2.69763,4.91453 -0.67437,2.36902 -0.99012,7.32803 -0.99012,14.88278 l 0,13.71191"
         id="path34"
         style="fill:#100f0d;fill-opacity:1;fill-rule:nonzero;stroke:none" />
      <path
         d="m 464.90041,195.32741 c 0,4.4037 1.06188,7.77715 3.1425,10.11891 2.09487,2.34033 4.67775,3.5112 7.734,3.5112 3.07075,0 5.63925,-1.17087 7.71987,-3.5112 2.06625,-2.34176 3.11363,-5.74104 3.11363,-10.20214 0,-4.34775 -1.04738,-7.6925 -3.11363,-10.03426 -2.08062,-2.34175 -4.64912,-3.50976 -7.71987,-3.50976 -3.05625,0 -5.63912,1.16801 -7.734,3.50976 -2.08063,2.34176 -3.1425,5.71665 -3.1425,10.11749 z m -12.03875,-0.62561 c 0,-3.90294 0.97563,-7.67673 2.8985,-11.32998 1.90837,-3.65039 4.63462,-6.44126 8.1645,-8.3626 3.5155,-1.9242 7.4615,-2.88415 11.80925,-2.88415 6.71537,0 12.22537,2.18249 16.51575,6.54459 4.29025,4.35922 6.44263,9.8721 6.44263,16.53435 0,6.71676 -2.18101,12.28274 -6.51438,16.70224 -4.31912,4.41661 -9.786,6.62636 -16.35787,6.62636 -4.07513,0 -7.94938,-0.91978 -11.63713,-2.76219 -3.702,-1.83524 -6.51437,-4.53571 -8.42275,-8.08996 -1.92287,-3.55281 -2.8985,-7.8776 -2.8985,-12.97866"
         id="path36"
         style="fill:#100f0d;fill-opacity:1;fill-rule:nonzero;stroke:none" />
      <path
         d="m 515.75328,194.57696 c 0,4.98771 0.99013,8.6754 2.97025,11.05734 1.96575,2.38336 4.37638,3.57433 7.23188,3.57433 2.72637,0 4.9935,-1.0934 6.81575,-3.28162 1.808,-2.18679 2.712,-5.77547 2.712,-10.76605 0,-4.65195 -0.93275,-8.11293 -2.79813,-10.36859 -1.86524,-2.25566 -4.1755,-3.38636 -6.94487,-3.38636 -2.86975,0 -5.25175,1.10917 -7.14575,3.32322 -1.89413,2.21693 -2.84113,5.49854 -2.84113,9.84773 z m -11.62275,-21.45033 10.94838,0 0,6.52163 c 1.4205,-2.22554 3.35762,-4.03925 5.78262,-5.43398 2.41063,-1.39185 5.10826,-2.08921 8.04976,-2.08921 5.16562,0 9.54212,2.02034 13.12937,6.06103 3.60163,4.04641 5.4095,9.67408 5.4095,16.89163 0,7.4127 -1.82225,13.17669 -5.43825,17.28768 -3.63025,4.11242 -8.021,6.1672 -13.18675,6.1672 -2.43925,0 -4.66337,-0.48786 -6.65787,-1.46504 -1.9945,-0.97429 -4.0895,-2.64451 -6.28488,-5.0164 l 0,22.36721 -11.75187,0 0,-61.29175"
         id="path38"
         style="fill:#100f0d;fill-opacity:1;fill-rule:nonzero;stroke:none" />
      <path
         d="m 580.43854,191.52348 c -0.0863,-3.39927 -0.96138,-5.9864 -2.64013,-7.75563 -1.6645,-1.76779 -3.68775,-2.65457 -6.09837,-2.65457 -2.55413,0 -4.67775,0.93269 -6.35663,2.80093 -1.6645,1.86967 -2.48237,4.40371 -2.468,7.60927 l 17.56313,0 z m -0.67438,11.87236 11.72313,1.96726 c -1.521,4.29322 -3.88863,7.56192 -7.14575,9.80036 -3.24288,2.24562 -7.30363,3.36915 -12.168,3.36915 -7.73413,0 -13.44501,-2.52111 -17.16138,-7.56623 -2.91288,-4.04355 -4.3765,-9.14319 -4.3765,-15.30607 0,-7.35674 1.92275,-13.11499 5.76838,-17.28625 3.8455,-4.16408 8.70975,-6.24899 14.59287,-6.24899 6.6005,0 11.80925,2.18249 15.64038,6.54459 3.8025,4.35922 5.62487,11.04299 5.467,20.04699 l -29.42975,0 c 0.0863,3.4825 1.03312,6.19302 2.84112,8.13013 1.80788,1.93855 4.06075,2.90712 6.77263,2.90712 1.83675,0 3.38637,-0.50365 4.64912,-1.50666 1.24838,-1.00442 2.19538,-2.62012 2.82675,-4.8514"
         id="path40"
         style="fill:#100f0d;fill-opacity:1;fill-rule:nonzero;stroke:none" />
    </g>
  </g>
</svg>
